<svg xmlns="http://www.w3.org/2000/svg" viewBox="0 0 1440 900" preserveAspectRatio="xMidYMid slice">
  <defs>
    <linearGradient id="bg" x1="0%" y1="0%" x2="100%" y2="100%">
      <stop offset="0%" stop-color="#fff7ed"/>
      <stop offset="60%" stop-color="#ffedd5"/>
      <stop offset="100%" stop-color="#fed7aa"/>
    </linearGradient>
  </defs>
  <rect width="1440" height="900" fill="url(#bg)"/>

  <!-- Clipboard top-right -->
  <rect x="980" y="60" width="280" height="380" rx="18" fill="#fed7aa" fill-opacity="0.5"/>
  <rect x="980" y="60" width="280" height="380" rx="18" fill="none" stroke="#f97316" stroke-opacity="0.2" stroke-width="2"/>
  <rect x="1060" y="38" width="120" height="44" rx="14" fill="#fdba74" fill-opacity="0.5"/>
  <rect x="1060" y="38" width="120" height="44" rx="14" fill="none" stroke="#f97316" stroke-opacity="0.2" stroke-width="2"/>
  <!-- Clipboard lines -->
  <line x1="1010" y1="140" x2="1230" y2="140" stroke="#ea580c" stroke-opacity="0.25" stroke-width="7" stroke-linecap="round"/>
  <line x1="1010" y1="172" x2="1210" y2="172" stroke="#ea580c" stroke-opacity="0.2" stroke-width="6" stroke-linecap="round"/>
  <line x1="1010" y1="202" x2="1220" y2="202" stroke="#ea580c" stroke-opacity="0.2" stroke-width="6" stroke-linecap="round"/>
  <line x1="1010" y1="232" x2="1190" y2="232" stroke="#ea580c" stroke-opacity="0.15" stroke-width="6" stroke-linecap="round"/>
  <line x1="1010" y1="262" x2="1215" y2="262" stroke="#ea580c" stroke-opacity="0.15" stroke-width="6" stroke-linecap="round"/>
  <!-- Checkboxes -->
  <rect x="1010" y="300" width="20" height="20" rx="4" fill="#fb923c" fill-opacity="0.3"/>
  <path d="M1013 310 l5 6 l10-10" fill="none" stroke="#ea580c" stroke-opacity="0.5" stroke-width="2.5" stroke-linecap="round" stroke-linejoin="round"/>
  <rect x="1010" y="335" width="20" height="20" rx="4" fill="#fb923c" fill-opacity="0.3"/>
  <path d="M1013 345 l5 6 l10-10" fill="none" stroke="#ea580c" stroke-opacity="0.5" stroke-width="2.5" stroke-linecap="round" stroke-linejoin="round"/>
  <rect x="1010" y="370" width="20" height="20" rx="4" fill="#fed7aa" fill-opacity="0.5"/>

  <!-- Question mark large left -->
  <text x="80" y="420" font-family="Georgia, serif" font-size="260" fill="#f97316" fill-opacity="0.08" font-weight="bold">?</text>

  <!-- Rubric rows bottom-left -->
  <rect x="60" y="620" width="360" height="28" rx="6" fill="#fed7aa" fill-opacity="0.5"/>
  <rect x="60" y="660" width="300" height="28" rx="6" fill="#ffedd5" fill-opacity="0.6"/>
  <rect x="60" y="700" width="330" height="28" rx="6" fill="#fed7aa" fill-opacity="0.45"/>
  <rect x="60" y="740" width="280" height="28" rx="6" fill="#ffedd5" fill-opacity="0.5"/>

  <!-- Star ratings -->
  <polygon points="900,680 909,707 938,707 915,723 924,750 900,734 876,750 885,723 862,707 891,707" fill="#fbbf24" fill-opacity="0.3"/>
  <polygon points="970,680 979,707 1008,707 985,723 994,750 970,734 946,750 955,723 932,707 961,707" fill="#fbbf24" fill-opacity="0.25"/>
  <polygon points="1040,680 1049,707 1078,707 1055,723 1064,750 1040,734 1016,750 1025,723 1002,707 1031,707" fill="#fbbf24" fill-opacity="0.2"/>

  <!-- Dot grid -->
  <g fill="#f97316" fill-opacity="0.1">
    <circle cx="1280" cy="760" r="4"/><circle cx="1330" cy="760" r="4"/><circle cx="1380" cy="760" r="4"/>
    <circle cx="1280" cy="810" r="4"/><circle cx="1330" cy="810" r="4"/><circle cx="1380" cy="810" r="4"/>
    <circle cx="60" cy="60" r="4"/><circle cx="110" cy="60" r="4"/><circle cx="160" cy="60" r="4"/>
    <circle cx="60" cy="110" r="4"/><circle cx="110" cy="110" r="4"/><circle cx="160" cy="110" r="4"/>
  </g>
  <circle cx="750" cy="820" r="130" fill="#fb923c" fill-opacity="0.07"/>
</svg>
