<svg xmlns="http://www.w3.org/2000/svg" viewBox="0 0 1440 900" preserveAspectRatio="xMidYMid slice">
  <defs>
    <linearGradient id="bg" x1="0%" y1="0%" x2="100%" y2="100%">
      <stop offset="0%" stop-color="#f0fdf4"/>
      <stop offset="60%" stop-color="#dcfce7"/>
      <stop offset="100%" stop-color="#bbf7d0"/>
    </linearGradient>
  </defs>
  <rect width="1440" height="900" fill="url(#bg)"/>

  <!-- Podium bars -->
  <rect x="1020" y="460" width="110" height="240" rx="10" fill="#86efac" fill-opacity="0.5"/>
  <rect x="1145" y="380" width="110" height="320" rx="10" fill="#4ade80" fill-opacity="0.45"/>
  <rect x="895" y="520" width="110" height="180" rx="10" fill="#bbf7d0" fill-opacity="0.55"/>
  <!-- Podium base -->
  <rect x="880" y="695" width="390" height="20" rx="6" fill="#16a34a" fill-opacity="0.15"/>
  <!-- Medal circles -->
  <circle cx="1200" cy="350" r="36" fill="#fbbf24" fill-opacity="0.35"/>
  <text x="1200" y="358" text-anchor="middle" font-family="sans-serif" font-size="22" fill="#d97706" fill-opacity="0.7">1</text>
  <circle cx="1075" cy="430" r="28" fill="#9ca3af" fill-opacity="0.3"/>
  <text x="1075" y="438" text-anchor="middle" font-family="sans-serif" font-size="18" fill="#6b7280" fill-opacity="0.7">2</text>
  <circle cx="950" cy="490" r="24" fill="#d97706" fill-opacity="0.25"/>
  <text x="950" y="497" text-anchor="middle" font-family="sans-serif" font-size="16" fill="#92400e" fill-opacity="0.6">3</text>

  <!-- Ranked list rows left side -->
  <rect x="60" y="180" width="420" height="56" rx="12" fill="#bbf7d0" fill-opacity="0.5"/>
  <circle cx="100" cy="208" r="18" fill="#4ade80" fill-opacity="0.4"/>
  <line x1="130" y1="200" x2="440" y2="200" stroke="#16a34a" stroke-opacity="0.2" stroke-width="6" stroke-linecap="round"/>
  <line x1="130" y1="218" x2="380" y2="218" stroke="#16a34a" stroke-opacity="0.15" stroke-width="5" stroke-linecap="round"/>
  <rect x="60" y="255" width="420" height="56" rx="12" fill="#dcfce7" fill-opacity="0.5"/>
  <circle cx="100" cy="283" r="18" fill="#86efac" fill-opacity="0.4"/>
  <line x1="130" y1="275" x2="420" y2="275" stroke="#16a34a" stroke-opacity="0.18" stroke-width="6" stroke-linecap="round"/>
  <line x1="130" y1="293" x2="360" y2="293" stroke="#16a34a" stroke-opacity="0.12" stroke-width="5" stroke-linecap="round"/>
  <rect x="60" y="330" width="420" height="56" rx="12" fill="#f0fdf4" fill-opacity="0.6"/>
  <circle cx="100" cy="358" r="18" fill="#bbf7d0" fill-opacity="0.5"/>
  <line x1="130" y1="350" x2="400" y2="350" stroke="#16a34a" stroke-opacity="0.15" stroke-width="6" stroke-linecap="round"/>
  <line x1="130" y1="368" x2="340" y2="368" stroke="#16a34a" stroke-opacity="0.1" stroke-width="5" stroke-linecap="round"/>

  <!-- Checkmarks -->
  <path d="M80 210 l8 9 l18-18" fill="none" stroke="#16a34a" stroke-opacity="0.5" stroke-width="3" stroke-linecap="round" stroke-linejoin="round"/>
  <path d="M80 285 l8 9 l18-18" fill="none" stroke="#16a34a" stroke-opacity="0.4" stroke-width="3" stroke-linecap="round" stroke-linejoin="round"/>

  <!-- Star top-right -->
  <polygon points="1350,80 1360,110 1392,110 1367,128 1377,158 1350,140 1323,158 1333,128 1308,110 1340,110" fill="#fbbf24" fill-opacity="0.2"/>
  <polygon points="120,720 128,744 154,744 133,758 141,782 120,768 99,782 107,758 86,744 112,744" fill="#fbbf24" fill-opacity="0.18"/>

  <!-- Dot grid -->
  <g fill="#16a34a" fill-opacity="0.1">
    <circle cx="1280" cy="760" r="4"/><circle cx="1330" cy="760" r="4"/><circle cx="1380" cy="760" r="4"/>
    <circle cx="1280" cy="810" r="4"/><circle cx="1330" cy="810" r="4"/><circle cx="1380" cy="810" r="4"/>
    <circle cx="1280" cy="860" r="4"/><circle cx="1330" cy="860" r="4"/><circle cx="1380" cy="860" r="4"/>
  </g>
  <circle cx="700" cy="820" r="130" fill="#4ade80" fill-opacity="0.07"/>
</svg>
